<svg width="76" height="80" viewBox="0 0 76 80" fill="none" xmlns="http://www.w3.org/2000/svg">
<g filter="url(#filter0_d_0_88)">
<path fill-rule="evenodd" clip-rule="evenodd" d="M44 23.9991C44 23.6731 43.841 23.3671 43.573 23.1801L33.573 16.1801C33.269 15.9661 32.869 15.9421 32.538 16.1121C32.207 16.2851 32 16.6261 32 16.9991V31.0001C32 31.3731 32.207 31.7151 32.538 31.8871C32.869 32.0571 33.268 32.0331 33.573 31.8191L43.573 24.8191C43.841 24.6331 44 24.3271 44 24.0011C44 24.0001 44 24.0001 44 23.9991C44 24.0001 44 24.0001 44 23.9991Z" fill="#5D5DFF"/>
</g>
<defs>
<filter id="filter0_d_0_88" x="0" y="0" width="76" height="79.9991" filterUnits="userSpaceOnUse" color-interpolation-filters="sRGB">
<feFlood flood-opacity="0" result="BackgroundImageFix"/>
<feColorMatrix in="SourceAlpha" type="matrix" values="0 0 0 0 0 0 0 0 0 0 0 0 0 0 0 0 0 0 127 0" result="hardAlpha"/>
<feOffset dy="16"/>
<feGaussianBlur stdDeviation="16"/>
<feColorMatrix type="matrix" values="0 0 0 0 0.0627451 0 0 0 0 0.0862745 0 0 0 0 0.254902 0 0 0 0.24 0"/>
<feBlend mode="normal" in2="BackgroundImageFix" result="effect1_dropShadow_0_88"/>
<feBlend mode="normal" in="SourceGraphic" in2="effect1_dropShadow_0_88" result="shape"/>
</filter>
</defs>
</svg>
